<?xml version="1.0" encoding="utf-8"?>
<!-- Generator: Adobe Illustrator 26.0.1, SVG Export Plug-In . SVG Version: 6.00 Build 0)  -->
<svg version="1.1" id="Layer_1" xmlns="http://www.w3.org/2000/svg" xmlns:xlink="http://www.w3.org/1999/xlink" x="0px" y="0px"
	 viewBox="0 0 1024 1024" style="enable-background:new 0 0 1024 1024;" xml:space="preserve">
<style type="text/css">
	.st0{fill:#231F20;}
</style>
<g>
	<path class="st0" d="M723.1,280.3c8,8,8,21,0,29L288.6,743.7c-8,8-21,8-29,0c-8-8-8-21,0-29l434.5-434.5
		C702.2,272.3,715.1,272.3,723.1,280.3z"/>
	<path class="st0" d="M259.7,280.3c-8,8-8,21,0,29l434.5,434.5c8,8,21,8,29,0c8-8,8-21,0-29L288.6,280.3
		C280.6,272.3,267.7,272.3,259.7,280.3z"/>
</g>
</svg>
